<?xml version="1.0" standalone="no"?>
<!DOCTYPE svg PUBLIC "-//W3C//DTD SVG 20010904//EN"
 "http://www.w3.org/TR/2001/REC-SVG-20010904/DTD/svg10.dtd">
<svg version="1.0" xmlns="http://www.w3.org/2000/svg"
 width="391.000000pt" height="145.000000pt" viewBox="0 0 391.000000 145.000000"
 preserveAspectRatio="xMidYMid meet">

<g transform="translate(0.000000,145.000000) scale(0.100000,-0.100000)"
fill="#000000" stroke="none">
<path d="M3140 1413 c0 -11 -108 -790 -115 -830 l-6 -33 276 0 275 0 0 -110 0
-110 105 0 105 0 0 110 0 110 55 0 55 0 0 104 0 105 -52 3 -53 3 -3 273 -2
272 -105 0 -105 0 -2 -272 -3 -273 -144 -3 c-80 -1 -148 1 -152 5 -4 4 14 153
40 331 l48 322 -109 0 c-59 0 -108 -3 -108 -7z"/>
<path d="M1533 1169 c-225 -27 -381 -250 -346 -492 21 -146 99 -259 222 -320
61 -30 72 -32 171 -32 94 0 111 3 163 27 32 15 76 41 97 58 21 16 40 30 42 30
3 0 22 -25 43 -55 28 -41 44 -55 61 -55 l24 0 0 405 0 405 -24 0 c-16 0 -37
-15 -63 -46 l-39 -47 -54 41 c-56 42 -139 78 -200 84 -19 3 -63 1 -97 -3z
m154 -226 c21 -11 52 -38 70 -61 88 -115 47 -279 -84 -339 -142 -65 -283 36
-283 202 0 172 152 273 297 198z"/>
<path d="M32 848 c3 -283 4 -295 27 -346 30 -66 113 -144 177 -166 26 -9 78
-16 115 -16 57 0 77 5 133 34 l66 35 66 -35 c56 -29 75 -34 134 -34 132 0 234
64 289 180 26 55 26 56 29 348 l3 292 -105 0 -106 0 0 -279 0 -278 -24 -26
c-48 -52 -124 -46 -163 12 -22 33 -23 40 -23 302 l0 269 -100 0 -99 0 -3 -279
-3 -279 -24 -26 c-48 -51 -142 -40 -170 20 -7 17 -11 117 -11 294 l0 270 -106
0 -106 0 4 -292z"/>
<path d="M2160 918 c0 -253 8 -325 43 -402 71 -154 264 -236 416 -177 l53 22
-18 -32 c-11 -18 -36 -46 -57 -63 -36 -29 -45 -31 -133 -34 l-94 -4 0 -105 0
-105 103 4 c89 3 111 8 169 35 93 44 160 109 206 202 l37 75 3 403 3 403 -100
0 -99 0 -4 -242 c-3 -271 -8 -294 -74 -344 -73 -56 -183 -33 -223 45 -20 37
-21 57 -21 291 l0 250 -105 0 -105 0 0 -222z"/>
</g>
</svg>
